<svg aria-hidden="true" style="position: absolute; width: 0; height: 0; overflow: hidden;" version="1.1" xmlns="http://www.w3.org/2000/svg" xmlns:xlink="http://www.w3.org/1999/xlink">
<defs>
<symbol id="icon-discord" viewBox="0 0 32 32">
<path d="M24.292 8.479c0 0 3.708 4.295 3.708 12.031v1.622c0 0-4.683 3.052-6.11 3.052l-1.384-2.013c0.86-0.385 2.034-1.054 2.034-1.054l-0.429-0.332c0 0-2.744 1.271-6.111 1.271s-6.111-1.271-6.111-1.271l-0.429 0.332c0 0 1.174 0.669 2.034 1.054l-1.384 2.013c-1.428 0-6.111-3.052-6.111-3.052v-1.622c0-7.736 3.708-12.031 3.708-12.031s2.536-1.228 4.879-1.551l0.727 1.378c0 0 1.155-0.268 2.687-0.268s2.687 0.268 2.687 0.268l0.727-1.378c2.342 0.323 4.879 1.551 4.879 1.551zM12.004 19.379c1.18 0 2.137-1.075 2.137-2.4s-0.957-2.4-2.137-2.4-2.137 1.075-2.137 2.4c0 1.326 0.956 2.4 2.137 2.4zM19.996 19.379c1.18 0 2.137-1.075 2.137-2.4s-0.957-2.4-2.137-2.4c-1.18 0-2.137 1.075-2.137 2.4s0.956 2.4 2.137 2.4z"></path>
</symbol>
</defs>
</svg>
